<?xml version="1.0" encoding="UTF-8" standalone="no"?>
<!-- Created with Inkscape (http://www.inkscape.org/) -->

<svg
   version="1.1"
   id="svg120335"
   xml:space="preserve"
   width="1066.6667"
   height="1066.6667"
   viewBox="0 0 1066.6667 1066.6667"
   sodipodi:docname="nuclear-explosion-pdv.svg"
   inkscape:version="1.1.2 (b8e25be833, 2022-02-05)"
   xmlns:inkscape="http://www.inkscape.org/namespaces/inkscape"
   xmlns:sodipodi="http://sodipodi.sourceforge.net/DTD/sodipodi-0.dtd"
   xmlns="http://www.w3.org/2000/svg"
   xmlns:svg="http://www.w3.org/2000/svg"><defs
     id="defs120339"><clipPath
       clipPathUnits="userSpaceOnUse"
       id="clipPath120349"><path
         d="M 0,800 H 800 V 0 H 0 Z"
         id="path120347" /></clipPath></defs><sodipodi:namedview
     id="namedview120337"
     pagecolor="#ffffff"
     bordercolor="#666666"
     borderopacity="1.0"
     inkscape:pageshadow="2"
     inkscape:pageopacity="0.0"
     inkscape:pagecheckerboard="0"
     showgrid="false"
     inkscape:zoom="0.77906244"
     inkscape:cx="533.33337"
     inkscape:cy="533.33337"
     inkscape:window-width="1920"
     inkscape:window-height="1018"
     inkscape:window-x="-8"
     inkscape:window-y="-8"
     inkscape:window-maximized="1"
     inkscape:current-layer="g120341" /><g
     id="g120341"
     inkscape:groupmode="layer"
     inkscape:label="nuclear-explosion-pdv"
     transform="matrix(1.3333333,0,0,-1.3333333,0,1066.6667)"><g
       id="g120343"><g
         id="g120345"
         clip-path="url(#clipPath120349)"><path
           d="M 0.476,-0.015 H 800.492 V 800 H 0.476 Z"
           style="fill:#ff4000;fill-opacity:1;fill-rule:evenodd;stroke:none"
           id="path120351" /><path
           d="m 218.659,150.204 h 397.472 c 84.518,61.484 139.475,161.148 139.475,273.661 0,186.789 -151.423,338.212 -338.211,338.212 -186.79,0 -338.212,-151.423 -338.212,-338.212 0,-112.513 54.957,-212.177 139.476,-273.661"
           style="fill:#ff6c3b;fill-opacity:1;fill-rule:evenodd;stroke:none"
           id="path120353" /><path
           d="m 405.755,392.232 c 138.811,0 252.027,12.159 252.027,27.066 0,14.908 -113.216,27.067 -252.027,27.067 -138.812,0 -252.028,-12.159 -252.028,-27.067 0,-14.907 113.216,-27.066 252.028,-27.066"
           style="fill:#fff2bf;fill-opacity:1;fill-rule:evenodd;stroke:none"
           id="path120355" /><path
           d="m 427.121,524.176 c 4.52,0 8.752,-1.225 12.385,-3.361 1.378,13.112 12.469,23.331 25.946,23.331 14.408,0 26.09,-11.68 26.09,-26.089 0,-4.659 -1.221,-9.032 -3.359,-12.816 4.037,-3.603 6.582,-8.845 6.582,-14.682 0,-4.259 -1.355,-8.202 -3.658,-11.422 6.092,-3.93 10.127,-10.776 10.127,-18.565 0,-8.31 -4.591,-15.547 -11.377,-19.313 0.311,-1.573 0.476,-3.197 0.476,-4.862 0,-13.785 -11.175,-24.959 -24.96,-24.959 -9.418,0 -17.617,5.216 -21.866,12.919 -0.455,-0.023 -0.914,-0.035 -1.374,-0.035 -14.922,0 -27.018,12.095 -27.018,27.018 0,10.456 5.942,19.523 14.632,24.015 -0.863,-0.092 -1.739,-0.14 -2.626,-0.14 -13.52,0 -24.481,10.96 -24.481,24.481 0,13.52 10.961,24.48 24.481,24.48"
           style="fill:#fff2bf;fill-opacity:1;fill-rule:evenodd;stroke:none"
           id="path120357" /><path
           d="m 319.61,265.623 c 4.226,-5.409 6.744,-12.219 6.744,-19.616 0,-17.613 -14.278,-31.893 -31.892,-31.893 -17.614,0 -31.893,14.28 -31.893,31.893 0,17.024 13.341,30.932 30.137,31.845 -1.694,3.275 -2.652,6.995 -2.652,10.939 0,13.174 10.681,23.855 23.855,23.855 1.785,0 3.523,-0.198 5.195,-0.569 0.32,12.666 8.972,23.259 20.681,26.509 2.085,11.544 10.995,20.714 22.401,23.184 -0.03,0.475 -0.048,0.955 -0.048,1.438 0,12.172 9.867,22.04 22.04,22.04 l 0.279,-0.004 c -0.351,1.476 -0.539,3.014 -0.539,4.597 0,10.925 8.857,19.781 19.782,19.781 2.975,0 5.795,-0.658 8.325,-1.835 3.787,3.701 8.965,5.983 14.677,5.983 10.833,0 19.75,-8.202 20.881,-18.735 9.363,-0.784 16.717,-8.632 16.717,-18.196 0,-7.441 -4.449,-13.841 -10.832,-16.687 4.446,-3.801 7.265,-9.452 7.265,-15.761 0,-3.251 -0.749,-6.328 -2.084,-9.068 4.44,-4.225 7.206,-10.193 7.206,-16.808 0,-2.823 -0.504,-5.529 -1.428,-8.032 12.416,-5.217 21.135,-17.493 21.135,-31.804 0,-5.5 -1.289,-10.701 -3.58,-15.315 14.917,-0.449 26.872,-12.68 26.872,-27.708 0,-13.752 -10.012,-25.161 -23.146,-27.343 C 483.139,190.051 467.452,176 448.481,176 c -20.763,0 -37.596,16.833 -37.596,37.597 0,15.792 9.739,29.308 23.537,34.877 -10.631,5.876 -17.832,17.198 -17.832,30.205 0,9.167 3.579,17.498 9.414,23.675 -4.058,4.179 -6.557,9.878 -6.557,16.161 0,4.917 1.531,9.473 4.138,13.225 -2.7,3.501 -4.308,7.888 -4.308,12.651 0,0.922 0.062,1.83 0.178,2.72 -5.885,0.85 -11.059,3.892 -14.667,8.273 -1.793,-4.72 -5.161,-8.664 -9.464,-11.192 1.34,-3.34 2.078,-6.986 2.078,-10.803 0,-13.783 -9.601,-25.322 -22.478,-28.296 -2.847,-12.6 -14.107,-22.007 -27.567,-22.007 -3.488,0 -6.828,0.633 -9.914,1.791 -1.558,-9.436 -8.651,-17.001 -17.833,-19.254"
           style="fill:#fff2bf;fill-opacity:1;fill-rule:evenodd;stroke:none"
           id="path120359" /><path
           d="m 425.626,335.285 c 12.48,-4.308 21.445,-16.156 21.445,-30.101 0,-3.122 -0.452,-6.139 -1.29,-8.993 12.309,-6.199 20.753,-18.946 20.753,-33.668 0,-20.809 -16.868,-37.679 -37.678,-37.679 -2.716,0 -5.365,0.29 -7.919,0.837 -6.981,-6.53 -16.357,-10.529 -26.669,-10.529 -9.623,0 -18.432,3.483 -25.239,9.253 -6.926,-5.776 -15.837,-9.253 -25.561,-9.253 -22.054,0 -39.931,17.878 -39.931,39.931 0,20.568 15.55,37.501 35.536,39.689 -1.515,3.851 -2.347,8.041 -2.347,12.43 0,18.759 15.208,33.968 33.968,33.968 0.363,0 0.726,-0.006 1.086,-0.017 -0.203,1.359 -0.308,2.749 -0.308,4.164 0,15.467 12.537,28.005 28.004,28.005 15.465,0 28.003,-12.538 28.003,-28.005 0,-3.535 -0.658,-6.918 -1.853,-10.032"
           style="fill:#ffcc00;fill-opacity:1;fill-rule:evenodd;stroke:none"
           id="path120361" /><path
           d="m 301.856,634.072 c 15.751,0 28.52,-12.768 28.52,-28.52 0,-15.751 -12.769,-28.519 -28.52,-28.519 -11.336,0 -21.128,6.615 -25.726,16.196 -1.603,-0.662 -3.301,-1.139 -5.069,-1.404 -1.908,-4.219 -5.297,-7.627 -9.503,-9.558 0.09,-0.763 0.136,-1.538 0.136,-2.324 0,-6.589 -3.219,-12.422 -8.171,-16.021 6.154,-6.644 9.918,-15.534 9.918,-25.305 0,-9.05 -3.228,-17.345 -8.594,-23.8 0.203,-1.231 0.311,-2.497 0.311,-3.786 0,-12.731 -10.321,-23.052 -23.053,-23.052 -7.556,0 -14.263,3.636 -18.467,9.253 -3.845,-3.232 -8.807,-5.179 -14.223,-5.179 -12.215,0 -22.117,9.903 -22.117,22.117 0,8.549 4.85,15.964 11.948,19.645 -0.202,1.572 -0.307,3.175 -0.307,4.802 0,19.353 14.759,35.257 33.636,37.075 -0.301,1.37 -0.459,2.792 -0.459,4.251 0,8.27 5.074,15.354 12.279,18.312 -0.037,0.487 -0.056,0.979 -0.056,1.475 0,8.072 4.98,14.981 12.035,17.823 1.937,10.073 10.795,17.684 21.433,17.684 6.495,0 12.327,-2.839 16.324,-7.341 4.868,3.866 11.027,6.176 17.725,6.176"
           style="fill:#fff2bf;fill-opacity:1;fill-rule:evenodd;stroke:none"
           id="path120363" /><path
           d="m 366.12,619.299 c 18.678,-3.035 32.938,-19.237 32.938,-38.774 0,-21.697 -17.59,-39.287 -39.287,-39.287 -2.023,0 -4.009,0.153 -5.949,0.447 -6.309,-9.065 -16.802,-14.999 -28.684,-14.999 -5.675,0 -11.034,1.355 -15.772,3.758 -5.173,-5.873 -12.747,-9.579 -21.188,-9.579 -0.575,0 -1.146,0.02 -1.712,0.054 -1.454,-4.538 -3.92,-8.623 -7.132,-11.991 0.98,-2.116 1.529,-4.473 1.529,-6.96 0,-9.151 -7.418,-16.569 -16.569,-16.569 -8.685,0 -15.809,6.684 -16.51,15.188 -12.829,3.861 -22.177,15.764 -22.177,29.851 0,2.437 0.281,4.807 0.81,7.083 -3.772,4.46 -6.047,10.226 -6.047,16.525 0,13.189 9.971,24.048 22.788,25.451 1.263,17.978 16.245,32.168 34.543,32.168 1.5,0 2.977,-0.096 4.426,-0.281 3.48,11.287 13.993,19.488 26.422,19.488 4.144,0 8.074,-0.913 11.601,-2.546 4.414,7.118 12.295,11.859 21.286,11.859 12.41,0 22.71,-9.035 24.684,-20.886"
           style="fill:#ffcc00;fill-opacity:1;fill-rule:evenodd;stroke:none"
           id="path120365" /><path
           d="m 578.141,625.378 c 16.483,-2.935 28.998,-17.339 28.998,-34.666 0,-19.448 -15.766,-35.213 -35.215,-35.213 -9.794,0 -18.653,3.999 -25.034,10.454 -4.734,-12.029 -16.454,-20.543 -30.164,-20.543 -5.04,0 -9.813,1.152 -14.067,3.205 -1.824,-13.273 -12.063,-23.86 -25.163,-26.202 -4.022,-6.188 -10.996,-10.28 -18.924,-10.28 -5.151,0 -9.898,1.728 -13.694,4.633 -4.375,-10.601 -14.811,-18.064 -26.992,-18.064 -15.356,0 -27.942,11.856 -29.102,26.914 -8.646,2.419 -15.484,9.161 -18.036,17.749 -0.646,-0.059 -1.298,-0.09 -1.959,-0.09 -11.733,0 -21.244,9.512 -21.244,21.245 0,11.733 9.511,21.244 21.244,21.244 1.578,0 3.113,-0.173 4.592,-0.499 1.733,13.416 13.199,23.781 27.087,23.781 2.192,0 4.323,-0.26 6.368,-0.748 5.034,3.76 11.281,5.987 18.049,5.987 1.017,0 2.025,-0.051 3.017,-0.15 0.523,7.885 7.082,14.119 15.099,14.119 3.179,0 6.128,-0.981 8.563,-2.656 5.845,6.289 14.188,10.222 23.451,10.222 0.256,0 0.512,-0.003 0.768,-0.008 1.58,13.442 13.009,23.873 26.877,23.873 10.891,0 20.275,-6.431 24.57,-15.702 5.279,3.31 11.52,5.225 18.211,5.225 15.298,0 28.26,-10.006 32.7,-23.83"
           style="fill:#ffcc00;fill-opacity:1;fill-rule:evenodd;stroke:none"
           id="path120367" /><path
           d="m 589.969,610.791 c 19.449,0 35.215,-15.767 35.215,-35.214 0,-19.449 -15.766,-35.214 -35.215,-35.214 -8.401,0 -16.115,2.943 -22.166,7.855 -1.673,-10.645 -9.354,-19.297 -19.466,-22.368 0.472,-0.342 0.931,-0.696 1.381,-1.062 1.838,0.489 3.768,0.753 5.761,0.753 12.32,0 22.307,-9.988 22.307,-22.309 0,-12.32 -9.987,-22.308 -22.307,-22.308 -0.375,0 -0.746,0.011 -1.115,0.029 -5.733,-7.13 -14.525,-11.695 -24.386,-11.695 -15.709,0 -28.711,11.583 -30.935,26.673 -4.421,-4.884 -10.81,-7.952 -17.916,-7.952 -13.341,0 -24.156,10.813 -24.156,24.154 0,3.446 0.722,6.722 2.022,9.688 -3.758,3.623 -6.097,8.708 -6.097,14.341 0,10.999 8.917,19.916 19.917,19.916 1.696,0 3.341,-0.212 4.915,-0.611 1.902,9.961 10.657,17.49 21.17,17.49 6.59,0 12.489,-2.957 16.443,-7.618 4.097,7.969 11.908,13.711 21.148,14.939 2.928,5.349 8.608,8.977 15.133,8.977 1.933,0 3.79,-0.317 5.524,-0.903 5.113,13.132 17.881,22.439 32.823,22.439"
           style="fill:#fff2bf;fill-opacity:1;fill-rule:evenodd;stroke:none"
           id="path120369" /><path
           d="m 228.814,215.578 c 8.225,0 16.166,-1.212 23.657,-3.463 3.19,27.187 26.301,48.281 54.344,48.281 9.134,0 17.745,-2.238 25.315,-6.196 5.743,18.428 22.937,31.806 43.257,31.806 18.556,0 34.504,-11.157 41.506,-27.13 3.881,0.992 7.95,1.52 12.142,1.52 23.568,0 43.238,-16.676 47.862,-38.871 2.612,-1.792 5.063,-3.798 7.328,-5.994 8.372,5.546 18.412,8.779 29.206,8.779 29.253,0 52.966,-23.715 52.966,-52.967 0,-3.102 -0.269,-6.139 -0.779,-9.095 15.224,-8.043 25.602,-24.034 25.602,-42.45 0,-26.503 -21.485,-47.985 -47.986,-47.985 -1.505,0 -2.995,0.072 -4.467,0.208 -11.173,-20.061 -32.591,-33.632 -57.182,-33.632 -4.441,0 -8.779,0.445 -12.972,1.288 -9.499,-11.645 -23.961,-19.083 -40.161,-19.083 -19.955,0 -37.272,11.285 -45.925,27.819 -7.896,-2.762 -16.382,-4.265 -25.221,-4.265 -27.727,0 -52.003,14.775 -65.388,36.882 -15.055,-18.085 -37.733,-29.598 -63.104,-29.598 -45.328,0 -82.073,36.746 -82.073,82.072 0,45.329 36.745,82.074 82.073,82.074"
           style="fill:#b32d00;fill-opacity:1;fill-rule:evenodd;stroke:none"
           id="path120371" /><path
           d="M 800.492,262.938 V 20.27 c -0.616,-0.013 -1.235,-0.023 -1.855,-0.023 -17.287,0 -33.259,5.627 -46.189,15.147 C 742.9,20.35 726.097,10.36 706.961,10.36 c -19.58,0 -36.718,10.455 -46.138,26.084 -6.63,-2.199 -13.718,-3.392 -21.087,-3.392 -25.792,0 -48.172,14.591 -59.348,35.967 -6.704,-5.516 -15.288,-8.831 -24.649,-8.831 -7.861,0 -15.175,2.341 -21.287,6.358 -6.433,-2.823 -13.543,-4.393 -21.019,-4.393 -9.828,0 -19.023,2.71 -26.882,7.418 0.068,-1.106 0.108,-2.218 0.108,-3.342 0,-29.251 -23.715,-52.966 -52.968,-52.966 -9.187,0 -17.829,2.34 -25.36,6.456 -11.687,-8.454 -26.048,-13.442 -41.575,-13.442 -37.017,0 -67.413,28.325 -70.709,64.483 -5.398,-1.806 -11.175,-2.785 -17.18,-2.785 -7.544,0 -14.727,1.546 -21.252,4.333 -11.558,-9.266 -26.226,-14.811 -42.192,-14.811 -18.018,0 -34.388,7.06 -46.495,18.562 -4.523,-2.861 -9.592,-4.936 -15.016,-6.031 -7.633,-29.957 -34.788,-52.11 -67.121,-52.11 -5.164,0 -10.193,0.569 -15.034,1.642 C 68.122,12.087 63.049,5.441 56.899,-0.015 H 0.477 v 250.992 c 6.909,2.844 14.476,4.419 22.411,4.419 32.535,0 58.909,-26.376 58.909,-58.913 v -0.039 c 5.55,2.713 11.787,4.239 18.381,4.239 8.56,0 16.519,-2.572 23.153,-6.977 5.022,25.862 27.787,45.391 55.119,45.391 28.659,0 52.302,-21.47 55.727,-49.203 10.69,-3.084 20.289,-8.743 28.087,-16.256 5.232,1.684 10.811,2.597 16.603,2.597 24.233,0 44.744,-15.922 51.647,-37.877 10.61,6.312 23.001,9.94 36.242,9.94 23.886,0 45.017,-11.795 57.889,-29.876 2.94,0.507 5.962,0.773 9.046,0.773 10.047,0 19.442,-2.799 27.445,-7.656 -0.056,0.993 -0.087,1.993 -0.087,2.999 0,28.932 23.452,52.385 52.384,52.385 9.237,0 17.913,-2.392 25.446,-6.588 6.648,16.161 22.549,27.541 41.106,27.541 17.203,0 32.119,-9.774 39.505,-24.072 6.387,2.025 13.189,3.119 20.246,3.119 12.76,0 24.681,-3.571 34.827,-9.768 11.742,26.985 38.636,45.856 69.945,45.856 7.771,0 15.272,-1.167 22.338,-3.329 -0.529,3.166 -0.803,6.416 -0.803,9.731 0,23.786 14.129,44.272 34.449,53.525"
           style="fill:#822100;fill-opacity:1;fill-rule:evenodd;stroke:none"
           id="path120373" /><path
           d="M 800.492,72.427 V -0.015 H 0.477 v 49.876 c 8.287,4.14 17.634,6.472 27.526,6.472 8.98,0 17.512,-1.921 25.208,-5.371 8.706,21.575 29.84,36.801 54.533,36.801 7.645,0 14.948,-1.461 21.648,-4.116 7.638,10.269 19.866,16.921 33.647,16.921 17.07,0 31.754,-10.206 38.288,-24.848 9.465,5.437 20.439,8.551 32.14,8.551 6.481,0 12.739,-0.958 18.64,-2.733 3.881,25.924 26.24,45.805 53.243,45.805 25.61,0 47.044,-17.884 52.496,-41.843 22.271,-4.312 40.142,-20.947 46.236,-42.528 5.848,2.599 12.32,4.047 19.133,4.047 9.683,0 18.682,-2.919 26.17,-7.925 13.295,21.495 36.736,36.053 63.64,36.98 5.438,17.56 21.805,30.315 41.151,30.315 18.506,0 34.285,-11.673 40.38,-28.055 4.483,1.582 9.306,2.444 14.334,2.444 16.402,0 30.661,-9.17 37.935,-22.664 8.388,5.847 18.583,9.277 29.581,9.277 18.254,0 34.302,-9.442 43.53,-23.708 7.216,3.622 15.364,5.665 23.988,5.665 5.896,0 11.567,-0.955 16.87,-2.715 7.958,14.259 22.606,24.272 39.698,25.794"
           style="fill:#631900;fill-opacity:1;fill-rule:evenodd;stroke:none"
           id="path120375" /><path
           d="m 673.711,505.419 c 4.611,-1.548 7.933,-5.904 7.933,-11.038 0,-6.428 -5.212,-11.64 -11.641,-11.64 -2.456,0 -4.735,0.761 -6.612,2.061 -2.771,-6.783 -9.433,-11.564 -17.212,-11.564 -5.389,0 -10.242,2.297 -13.638,5.962 -4.909,-6.009 -12.376,-9.846 -20.743,-9.846 -6.232,0 -11.967,2.129 -16.519,5.701 -1.528,-0.304 -3.108,-0.464 -4.724,-0.464 -12.619,0 -22.976,9.676 -24.061,22.011 -1.676,-0.43 -3.431,-0.659 -5.243,-0.659 -9.443,0 -17.435,6.222 -20.099,14.788 -1.64,-0.539 -3.393,-0.83 -5.213,-0.83 -9.214,0 -16.686,7.47 -16.686,16.686 0,9.216 7.472,16.687 16.686,16.687 1.524,0 3.002,-0.207 4.404,-0.589 1.305,12.434 11.821,22.124 24.6,22.124 2.32,0 4.565,-0.32 6.695,-0.917 4.883,4.542 11.428,7.32 18.625,7.32 4.762,0 9.244,-1.219 13.145,-3.361 4.613,8.584 13.676,14.42 24.105,14.42 15.108,0 27.357,-12.248 27.357,-27.356 0,-7.044 -2.664,-13.467 -7.037,-18.315 4.72,-3.274 8.23,-8.168 9.73,-13.877 0.732,0.117 1.487,0.178 2.253,0.178 7.877,0 14.26,-6.384 14.26,-14.259 0,-1.109 -0.127,-2.188 -0.365,-3.223"
           style="fill:#ffcc00;fill-opacity:1;fill-rule:evenodd;stroke:none"
           id="path120377" /><path
           d="m 475.596,660.268 c 16.394,0 29.686,-13.29 29.686,-29.685 0,-16.395 -13.292,-29.685 -29.686,-29.685 -5.094,0 -9.888,1.286 -14.075,3.546 0.069,-0.784 0.106,-1.579 0.106,-2.381 0,-14.787 -11.987,-26.774 -26.774,-26.774 -7.892,0 -14.987,3.415 -19.886,8.848 -1.88,-0.698 -3.888,-1.129 -5.981,-1.248 -1.078,-7.239 -5.489,-13.389 -11.62,-16.842 -0.799,-3.175 -2.159,-6.128 -3.97,-8.747 6.397,-4.28 10.609,-11.571 10.609,-19.845 0,-13.18 -10.684,-23.864 -23.865,-23.864 -8.408,0 -15.799,4.348 -20.05,10.919 -2.713,-1.399 -5.79,-2.189 -9.052,-2.189 -9.906,0 -18.111,7.278 -19.562,16.778 -9.435,4.568 -15.943,14.235 -15.943,25.421 0,15.59 12.639,28.23 28.229,28.23 2.003,0 3.956,-0.21 5.842,-0.607 -0.206,1.14 -0.312,2.317 -0.312,3.517 0,3.667 0.997,7.099 2.735,10.042 -1.373,2.548 -2.152,5.463 -2.152,8.559 0,7.247 4.266,13.496 10.422,16.375 -0.718,1.982 -1.11,4.119 -1.11,6.35 0,10.286 8.338,18.625 18.625,18.625 5.769,0 10.925,-2.623 14.342,-6.742 3.606,3.455 8.498,5.578 13.888,5.578 0.364,0 0.727,-0.01 1.086,-0.03 3.809,6.296 10.721,10.507 18.616,10.507 5.276,0 10.11,-1.88 13.874,-5.004 2.655,6.682 9.181,11.407 16.811,11.407 7.535,0 13.992,-4.609 16.709,-11.16 0.81,0.066 1.631,0.101 2.458,0.101"
           style="fill:#ffcc00;fill-opacity:1;fill-rule:evenodd;stroke:none"
           id="path120379" /><path
           d="m 400.668,551.156 c 14.432,0 26.13,-11.699 26.13,-26.13 0,-14.431 -11.698,-26.13 -26.13,-26.13 -6.268,0 -12.021,2.208 -16.522,5.886 -1.078,-16.543 -14.836,-29.629 -31.651,-29.629 -2.046,0 -4.046,0.194 -5.985,0.565 -3.565,-2.54 -7.929,-4.034 -12.641,-4.034 -9.019,0 -16.76,5.474 -20.082,13.28 l -0.359,-0.085 c -4.64,-8.313 -13.52,-13.935 -23.717,-13.935 -13.747,0 -25.105,10.22 -26.895,23.476 -0.371,-0.024 -0.744,-0.037 -1.122,-0.037 -9.803,0 -17.752,7.949 -17.752,17.753 0,7.897 5.157,14.587 12.286,16.893 0.861,12.554 10.874,22.592 23.417,23.493 -0.131,1.266 -0.198,2.55 -0.198,3.851 0,20.412 16.547,36.96 36.96,36.96 3.972,0 7.797,-0.63 11.384,-1.791 1.569,0.409 3.216,0.625 4.914,0.625 1.484,0 2.93,-0.167 4.32,-0.481 5.174,6.333 13.045,10.377 21.86,10.377 15.585,0 28.218,-12.633 28.218,-28.217 0,-7.711 -3.094,-14.698 -8.106,-19.79 3.146,-1.651 5.905,-3.938 8.104,-6.694 3.954,2.407 8.6,3.794 13.567,3.794"
           style="fill:#fff2bf;fill-opacity:1;fill-rule:evenodd;stroke:none"
           id="path120381" /></g></g></g></svg>
